<?xml version="1.0" encoding="UTF-8"?>
<!DOCTYPE svg PUBLIC "-//W3C//DTD SVG 1.1//EN" "http://www.w3.org/Graphics/SVG/1.1/DTD/svg11.dtd">
<svg xmlns="http://www.w3.org/2000/svg" version="1.1" width="512px" height="512px" style="shape-rendering:geometricPrecision; text-rendering:geometricPrecision; image-rendering:optimizeQuality; fill-rule:evenodd; clip-rule:evenodd" xmlns:xlink="http://www.w3.org/1999/xlink">
<g><path style="opacity:0.975" fill="#136fff" d="M 259.5,17.5 C 283.386,19.7202 296.72,32.7202 299.5,56.5C 298.76,63.7792 297.26,70.7792 295,77.5C 342.833,123.333 390.667,169.167 438.5,215C 459.833,215.333 481.167,215.667 502.5,216C 508.607,220.558 508.94,225.558 503.5,231C 499.582,232.156 495.582,232.656 491.5,232.5C 491.5,313.833 491.5,395.167 491.5,476.5C 495.182,476.335 498.848,476.501 502.5,477C 508.607,481.558 508.94,486.558 503.5,492C 502.167,492.333 500.833,492.667 499.5,493C 336.833,493.667 174.167,493.667 11.5,493C 4.13211,491.096 1.96544,486.596 5,479.5C 5.90252,478.299 7.06919,477.465 8.5,477C 12.1516,476.501 15.8183,476.335 19.5,476.5C 19.5,395.167 19.5,313.833 19.5,232.5C 13.9989,233.221 9.16557,231.888 5,228.5C 2.52784,223.256 3.6945,219.089 8.5,216C 29.8333,215.667 51.1667,215.333 72.5,215C 123.572,168.716 174.739,122.55 226,76.5C 217.571,56.6513 221.404,39.4847 237.5,25C 244.345,20.6336 251.678,18.1336 259.5,17.5 Z M 237.5,88.5 C 251.962,97.3898 266.629,97.7231 281.5,89.5C 282.5,90 283.5,90.5 284.5,91C 327.833,132.333 371.167,173.667 414.5,215C 308.833,215.667 203.167,215.667 97.5,215C 144.362,172.968 191.028,130.801 237.5,88.5 Z"/></g>
<g><path style="opacity:1" fill="#92bfff" d="M 253.5,34.5 C 277.576,34.0675 286.409,45.4009 280,68.5C 268.723,81.9271 256.389,82.9271 243,71.5C 233.794,55.6123 237.294,43.279 253.5,34.5 Z"/></g>
<g><path style="opacity:1" fill="#d6e8ff" d="M 35.5,231.5 C 182.167,231.5 328.833,231.5 475.5,231.5C 475.5,313.167 475.5,394.833 475.5,476.5C 328.833,476.5 182.167,476.5 35.5,476.5C 35.5,394.833 35.5,313.167 35.5,231.5 Z"/></g>
<g><path style="opacity:1" fill="#2072ff" d="M 131.5,265.5 C 214.167,265.333 296.834,265.5 379.5,266C 386.977,270.67 387.311,275.67 380.5,281C 297.167,281.667 213.833,281.667 130.5,281C 123.754,275.512 124.088,270.346 131.5,265.5 Z"/></g>
<g><path style="opacity:1" fill="#1a71ff" d="M 78.5,326.5 C 82.3169,325.826 85.1503,327.159 87,330.5C 91.4709,342.246 96.1376,353.913 101,365.5C 106.534,353.76 111.534,341.76 116,329.5C 119.048,325.99 122.381,325.657 126,328.5C 126.207,334.455 124.873,340.122 122,345.5C 117.805,355.086 113.805,364.752 110,374.5C 107.806,381.728 103.306,383.895 96.5,381C 88.9005,365.547 82.0672,349.714 76,333.5C 75.3333,332.167 75.3333,330.833 76,329.5C 77.045,328.627 77.8783,327.627 78.5,326.5 Z"/></g>
<g><path style="opacity:1" fill="#1971ff" d="M 146.5,326.5 C 150.954,325.617 154.454,326.95 157,330.5C 162.667,343.833 168.333,357.167 174,370.5C 175.318,373.406 175.652,376.406 175,379.5C 172.374,383.072 169.374,383.405 166,380.5C 163.998,376.658 162.498,372.658 161.5,368.5C 154.159,368.334 146.826,368.5 139.5,369C 137.675,373.652 135.342,377.985 132.5,382C 126.242,382.702 123.742,379.868 125,373.5C 130.862,360.248 136.528,346.915 142,333.5C 143.012,330.798 144.512,328.465 146.5,326.5 Z"/></g>
<g><path style="opacity:1" fill="#1b71ff" d="M 196.5,326.5 C 202.176,326.334 207.843,326.501 213.5,327C 217.795,327.898 221.628,329.731 225,332.5C 226.481,338.857 223.981,341.357 217.5,340C 205.695,333.439 196.528,335.939 190,347.5C 188.359,355.14 189.859,361.973 194.5,368C 203.171,372.469 211.837,372.303 220.5,367.5C 225.255,368.88 226.588,371.88 224.5,376.5C 211.689,384.57 199.022,384.404 186.5,376C 177.738,365.777 175.571,354.277 180,341.5C 183.822,334.504 189.322,329.504 196.5,326.5 Z"/></g>
<g><path style="opacity:1" fill="#1870ff" d="M 249.5,326.5 C 256.205,325.266 260.372,327.933 262,334.5C 267.333,347.167 272.667,359.833 278,372.5C 279.971,378.828 277.805,381.994 271.5,382C 268.266,378.367 265.932,374.201 264.5,369.5C 257.167,368.167 249.833,368.167 242.5,369.5C 241.068,374.201 238.734,378.367 235.5,382C 232.044,382.855 229.544,381.689 228,378.5C 227.726,375.351 228.392,372.351 230,369.5C 236,354.842 242.5,340.508 249.5,326.5 Z"/></g>
<g><path style="opacity:1" fill="#1770ff" d="M 288.5,326.5 C 293.223,325.553 297.056,326.886 300,330.5C 307.333,341.167 314.667,351.833 322,362.5C 322.333,351.5 322.667,340.5 323,329.5C 325.971,325.908 329.304,325.575 333,328.5C 333.667,345.167 333.667,361.833 333,378.5C 328.959,383.313 324.625,383.646 320,379.5C 312.58,368.325 304.913,357.325 297,346.5C 296.667,357.167 296.333,367.833 296,378.5C 293.078,383.233 289.745,383.566 286,379.5C 285.333,362.833 285.333,346.167 286,329.5C 287.045,328.627 287.878,327.627 288.5,326.5 Z"/></g>
<g><path style="opacity:1" fill="#1871ff" d="M 358.5,326.5 C 367.473,325.701 376.14,326.868 384.5,330C 385.667,331.167 386.833,332.333 388,333.5C 388.269,327.892 391.102,325.725 396.5,327C 401.788,333.744 406.955,340.577 412,347.5C 416.58,341.34 420.914,335.007 425,328.5C 431.324,324.736 434.657,326.403 435,333.5C 429.333,341.833 423.667,350.167 418,358.5C 417.93,365.939 417.263,373.272 416,380.5C 412.626,383.405 409.626,383.072 407,379.5C 406.667,372.5 406.333,365.5 406,358.5C 400.333,350.5 394.667,342.5 389,334.5C 388.309,337.858 386.309,339.858 383,340.5C 378.09,338.856 373.09,337.522 368,336.5C 353.241,339.337 348.241,348.003 353,362.5C 356.027,368.429 360.861,371.429 367.5,371.5C 372.93,371.184 378.097,369.851 383,367.5C 387.586,368.408 389.252,371.074 388,375.5C 376.326,383.68 364.159,384.513 351.5,378C 341.586,369.318 338.086,358.485 341,345.5C 343.928,336.408 349.762,330.075 358.5,326.5 Z"/></g>
<g><path style="opacity:1" fill="#cfe3ff" d="M 155.5,356.5 C 152.038,357.482 148.371,357.815 144.5,357.5C 146.043,352.743 147.876,348.076 150,343.5C 152.318,347.619 154.152,351.953 155.5,356.5 Z"/></g>
<g><path style="opacity:1" fill="#d0e4ff" d="M 258.5,356.5 C 257.036,357.16 255.369,357.493 253.5,357.5C 251.36,357.444 249.694,356.777 248.5,355.5C 249.588,351.571 251.254,347.904 253.5,344.5C 255.713,348.262 257.38,352.262 258.5,356.5 Z"/></g>
<g><path style="opacity:1" fill="#84b5ff" d="M 155.5,356.5 C 156.043,356.56 156.376,356.893 156.5,357.5C 152.351,358.809 148.351,358.809 144.5,357.5C 148.371,357.815 152.038,357.482 155.5,356.5 Z"/></g>
<g><path style="opacity:1" fill="#89b8ff" d="M 248.5,355.5 C 249.694,356.777 251.36,357.444 253.5,357.5C 255.369,357.493 257.036,357.16 258.5,356.5C 259.043,356.56 259.376,356.893 259.5,357.5C 255.555,358.491 251.555,358.824 247.5,358.5C 247.263,357.209 247.596,356.209 248.5,355.5 Z"/></g>
<g><path style="opacity:1" fill="#1871ff" d="M 131.5,426.5 C 214.167,426.333 296.834,426.5 379.5,427C 387.481,432.052 387.481,437.052 379.5,442C 296.5,442.667 213.5,442.667 130.5,442C 123.695,436.382 124.029,431.215 131.5,426.5 Z"/></g>
</svg>
