<?xml version="1.0" encoding="UTF-8"?>
<!DOCTYPE svg PUBLIC "-//W3C//DTD SVG 1.1//EN" "http://www.w3.org/Graphics/SVG/1.1/DTD/svg11.dtd">
<svg xmlns="http://www.w3.org/2000/svg" version="1.1" width="512px" height="512px" style="shape-rendering:geometricPrecision; text-rendering:geometricPrecision; image-rendering:optimizeQuality; fill-rule:evenodd; clip-rule:evenodd" xmlns:xlink="http://www.w3.org/1999/xlink">
<g><path style="opacity:0.997" fill="#fe6b52" d="M 232.5,-0.5 C 247.833,-0.5 263.167,-0.5 278.5,-0.5C 368.144,10.3879 435.644,54.7213 481,132.5C 497.695,163.971 507.861,197.304 511.5,232.5C 511.5,235.5 511.5,238.5 511.5,241.5C 478.167,208.5 444.833,175.5 411.5,142.5C 410.081,141.549 408.415,141.216 406.5,141.5C 389.167,123.5 371.5,105.833 353.5,88.5C 313.337,87.5014 273.003,87.1681 232.5,87.5C 232.5,105.5 232.5,123.5 232.5,141.5C 213.167,141.5 193.833,141.5 174.5,141.5C 174.5,181.833 174.5,222.167 174.5,262.5C 153.732,267.525 133.066,272.858 112.5,278.5C 107.832,272.808 102.832,268.141 97.5,264.5C 96.8423,263.602 96.1757,262.602 95.5,261.5C 70.6706,270.109 46.0039,279.109 21.5,288.5C 22.1744,290.195 22.8411,291.862 23.5,293.5C 16.5616,295.318 9.56156,296.984 2.5,298.5C 1.66853,291.673 0.66853,285.006 -0.5,278.5C -0.5,263.167 -0.5,247.833 -0.5,232.5C 10.3875,142.857 54.7208,75.3573 132.5,30C 163.971,13.3053 197.304,3.1386 232.5,-0.5 Z"/></g>
<g><path style="opacity:1" fill="#5a5964" d="M 353.5,88.5 C 333.167,88.5 312.833,88.5 292.5,88.5C 292.5,98.5 292.5,108.5 292.5,118.5C 282.5,118.5 272.5,118.5 262.5,118.5C 262.5,126.167 262.5,133.833 262.5,141.5C 252.5,141.5 242.5,141.5 232.5,141.5C 232.5,123.5 232.5,105.5 232.5,87.5C 273.003,87.1681 313.337,87.5014 353.5,88.5 Z"/></g>
<g><path style="opacity:1" fill="#333940" d="M 353.5,88.5 C 353.5,106.167 353.5,123.833 353.5,141.5C 343.5,141.5 333.5,141.5 323.5,141.5C 323.5,133.833 323.5,126.167 323.5,118.5C 313.167,118.5 302.833,118.5 292.5,118.5C 292.5,108.5 292.5,98.5 292.5,88.5C 312.833,88.5 333.167,88.5 353.5,88.5 Z"/></g>
<g><path style="opacity:1" fill="#f92814" d="M 353.5,88.5 C 371.5,105.833 389.167,123.5 406.5,141.5C 388.833,141.5 371.167,141.5 353.5,141.5C 353.5,123.833 353.5,106.167 353.5,88.5 Z"/></g>
<g><path style="opacity:1" fill="#f82814" d="M 292.5,118.5 C 302.833,118.5 313.167,118.5 323.5,118.5C 323.5,126.167 323.5,133.833 323.5,141.5C 303.167,141.5 282.833,141.5 262.5,141.5C 262.5,133.833 262.5,126.167 262.5,118.5C 272.5,118.5 282.5,118.5 292.5,118.5 Z"/></g>
<g><path style="opacity:1" fill="#414952" d="M 232.5,141.5 C 242.5,141.5 252.5,141.5 262.5,141.5C 272.319,142.494 282.319,142.827 292.5,142.5C 292.5,180.167 292.5,217.833 292.5,255.5C 276.493,255.567 260.493,255.9 244.5,256.5C 244.5,252.5 244.5,248.5 244.5,244.5C 232.167,244.5 219.833,244.5 207.5,244.5C 207.5,248.833 207.5,253.167 207.5,257.5C 196.346,258.435 185.346,260.101 174.5,262.5C 174.5,222.167 174.5,181.833 174.5,141.5C 193.833,141.5 213.167,141.5 232.5,141.5 Z"/></g>
<g><path style="opacity:1" fill="#23272b" d="M 262.5,141.5 C 282.833,141.5 303.167,141.5 323.5,141.5C 333.5,141.5 343.5,141.5 353.5,141.5C 371.167,141.5 388.833,141.5 406.5,141.5C 408.415,141.216 410.081,141.549 411.5,142.5C 411.5,181.167 411.5,219.833 411.5,258.5C 400.5,258.5 389.5,258.5 378.5,258.5C 378.5,253.833 378.5,249.167 378.5,244.5C 366.167,244.5 353.833,244.5 341.5,244.5C 341.5,249.167 341.5,253.833 341.5,258.5C 333.833,258.5 326.167,258.5 318.5,258.5C 310.233,254.479 301.566,253.479 292.5,255.5C 292.5,217.833 292.5,180.167 292.5,142.5C 282.319,142.827 272.319,142.494 262.5,141.5 Z"/></g>
<g><path style="opacity:1" fill="#f92814" d="M 411.5,142.5 C 444.833,175.5 478.167,208.5 511.5,241.5C 511.5,253.833 511.5,266.167 511.5,278.5C 500.612,368.144 456.279,435.644 378.5,481C 347.029,497.695 313.696,507.861 278.5,511.5C 263.167,511.5 247.833,511.5 232.5,511.5C 176.058,505.603 126.724,483.937 84.5,446.5C 84.631,445.761 84.4643,445.094 84,444.5C 77.2442,437.239 70.0775,430.572 62.5,424.5C 61.6618,424.158 61.3284,423.492 61.5,422.5C 66.6171,420.774 71.6171,418.774 76.5,416.5C 77.6751,417.974 78.6751,419.64 79.5,421.5C 102.5,411.667 125.5,401.833 148.5,392C 148.957,391.586 149.291,391.086 149.5,390.5C 145.63,381.551 141.964,372.551 138.5,363.5C 140.28,361.008 142.78,359.341 146,358.5C 186.911,373.804 227.745,389.304 268.5,405C 273.708,406.802 279.041,407.969 284.5,408.5C 299.075,410.222 313.075,407.722 326.5,401C 367.111,372.722 407.445,344.055 447.5,315C 443.81,307.955 439.143,301.622 433.5,296C 426.763,291.314 419.43,289.814 411.5,291.5C 411.5,280.5 411.5,269.5 411.5,258.5C 411.5,219.833 411.5,181.167 411.5,142.5 Z"/></g>
<g><path style="opacity:1" fill="#7c8394" d="M 244.5,256.5 C 232.17,256.933 219.837,257.266 207.5,257.5C 207.5,253.167 207.5,248.833 207.5,244.5C 219.833,244.5 232.167,244.5 244.5,244.5C 244.5,248.5 244.5,252.5 244.5,256.5 Z"/></g>
<g><path style="opacity:1" fill="#616776" d="M 378.5,258.5 C 378.5,265.833 378.5,273.167 378.5,280.5C 366.167,280.5 353.833,280.5 341.5,280.5C 341.5,273.167 341.5,265.833 341.5,258.5C 341.5,253.833 341.5,249.167 341.5,244.5C 353.833,244.5 366.167,244.5 378.5,244.5C 378.5,249.167 378.5,253.833 378.5,258.5 Z"/></g>
<g><path style="opacity:1" fill="#feddce" d="M 292.5,255.5 C 292.5,271.5 292.5,287.5 292.5,303.5C 276.067,307.887 259.734,312.554 243.5,317.5C 244.357,318.425 245.357,319.092 246.5,319.5C 247.29,320.401 248.29,321.068 249.5,321.5C 264.03,329.262 278.363,337.262 292.5,345.5C 292.5,366.5 292.5,387.5 292.5,408.5C 289.833,408.5 287.167,408.5 284.5,408.5C 279.041,407.969 273.708,406.802 268.5,405C 227.745,389.304 186.911,373.804 146,358.5C 142.78,359.341 140.28,361.008 138.5,363.5C 127.146,335.782 115.479,308.115 103.5,280.5C 106.692,280.595 109.692,279.929 112.5,278.5C 133.066,272.858 153.732,267.525 174.5,262.5C 185.346,260.101 196.346,258.435 207.5,257.5C 219.837,257.266 232.17,256.933 244.5,256.5C 260.493,255.9 276.493,255.567 292.5,255.5 Z"/></g>
<g><path style="opacity:1" fill="#fcbda9" d="M 318.5,258.5 C 329.023,266.973 331.19,277.307 325,289.5C 323.167,292.667 320.667,295.167 317.5,297C 309.27,299.641 300.937,301.807 292.5,303.5C 292.5,287.5 292.5,271.5 292.5,255.5C 301.566,253.479 310.233,254.479 318.5,258.5 Z"/></g>
<g><path style="opacity:1" fill="#343940" d="M 318.5,258.5 C 326.167,258.5 333.833,258.5 341.5,258.5C 341.5,265.833 341.5,273.167 341.5,280.5C 353.833,280.5 366.167,280.5 378.5,280.5C 378.5,273.167 378.5,265.833 378.5,258.5C 389.5,258.5 400.5,258.5 411.5,258.5C 411.5,269.5 411.5,280.5 411.5,291.5C 407.638,292.428 403.971,293.928 400.5,296C 387.528,304.816 374.195,312.982 360.5,320.5C 337.833,320.5 315.167,320.5 292.5,320.5C 292.5,320.167 292.5,319.833 292.5,319.5C 292.5,314.167 292.5,308.833 292.5,303.5C 300.937,301.807 309.27,299.641 317.5,297C 320.667,295.167 323.167,292.667 325,289.5C 331.19,277.307 329.023,266.973 318.5,258.5 Z"/></g>
<g><path style="opacity:1" fill="#fefefe" d="M 97.5,264.5 C 99.6965,269.756 101.697,275.089 103.5,280.5C 115.479,308.115 127.146,335.782 138.5,363.5C 141.964,372.551 145.63,381.551 149.5,390.5C 149.291,391.086 148.957,391.586 148.5,392C 125.5,401.833 102.5,411.667 79.5,421.5C 78.6751,419.64 77.6751,417.974 76.5,416.5C 59.1061,375.379 41.4394,334.379 23.5,293.5C 22.8411,291.862 22.1744,290.195 21.5,288.5C 46.0039,279.109 70.6706,270.109 95.5,261.5C 96.1757,262.602 96.8423,263.602 97.5,264.5 Z"/></g>
<g><path style="opacity:1" fill="#f9311c" d="M 112.5,278.5 C 109.692,279.929 106.692,280.595 103.5,280.5C 101.697,275.089 99.6965,269.756 97.5,264.5C 102.832,268.141 107.832,272.808 112.5,278.5 Z"/></g>
<g><path style="opacity:1" fill="#febda9" d="M 284.5,408.5 C 287.167,408.5 289.833,408.5 292.5,408.5C 292.5,387.5 292.5,366.5 292.5,345.5C 297.272,347.72 301.938,350.22 306.5,353C 307.5,353.667 308.5,353.667 309.5,353C 326.903,342.642 343.903,331.808 360.5,320.5C 374.195,312.982 387.528,304.816 400.5,296C 403.971,293.928 407.638,292.428 411.5,291.5C 419.43,289.814 426.763,291.314 433.5,296C 439.143,301.622 443.81,307.955 447.5,315C 407.445,344.055 367.111,372.722 326.5,401C 313.075,407.722 299.075,410.222 284.5,408.5 Z"/></g>
<g><path style="opacity:0.991" fill="#e9ecf4" d="M 23.5,293.5 C 41.4394,334.379 59.1061,375.379 76.5,416.5C 71.6171,418.774 66.6171,420.774 61.5,422.5C 30.1044,387.032 10.4377,345.698 2.5,298.5C 9.56156,296.984 16.5616,295.318 23.5,293.5 Z"/></g>
<g><path style="opacity:1" fill="#585c68" d="M 292.5,303.5 C 292.5,308.833 292.5,314.167 292.5,319.5C 277.167,319.5 261.833,319.5 246.5,319.5C 245.357,319.092 244.357,318.425 243.5,317.5C 259.734,312.554 276.067,307.887 292.5,303.5 Z"/></g>
<g><path style="opacity:1" fill="#a14542" d="M 246.5,319.5 C 261.833,319.5 277.167,319.5 292.5,319.5C 292.5,319.833 292.5,320.167 292.5,320.5C 277.99,320.171 263.657,320.504 249.5,321.5C 248.29,321.068 247.29,320.401 246.5,319.5 Z"/></g>
<g><path style="opacity:1" fill="#f92915" d="M 249.5,321.5 C 263.657,320.504 277.99,320.171 292.5,320.5C 315.167,320.5 337.833,320.5 360.5,320.5C 343.903,331.808 326.903,342.642 309.5,353C 308.5,353.667 307.5,353.667 306.5,353C 301.938,350.22 297.272,347.72 292.5,345.5C 278.363,337.262 264.03,329.262 249.5,321.5 Z"/></g>
<g><path style="opacity:1" fill="#dce1eb" d="M 96.5,359.5 C 110.846,358.68 117.679,365.347 117,379.5C 112.596,389.619 105.096,393.119 94.5,390C 85.7173,384.039 83.5507,376.206 88,366.5C 90.6278,363.79 93.4611,361.456 96.5,359.5 Z"/></g>
<g><path style="opacity:0.902" fill="#fd583f" d="M 62.5,424.5 C 70.0775,430.572 77.2442,437.239 84,444.5C 84.4643,445.094 84.631,445.761 84.5,446.5C 76.8333,439.5 69.5,432.167 62.5,424.5 Z"/></g>
</svg>
